<svg width="15" height="10" viewBox="0 0 15 10" fill="none" xmlns="http://www.w3.org/2000/svg">
<path d="M7.49996 0C4.16663 0 1.31996 2.07333 0.166626 5C1.31996 7.92667 4.16663 10 7.49996 10C10.8333 10 13.68 7.92667 14.8333 5C13.68 2.07333 10.8333 0 7.49996 0ZM7.49996 8.33333C5.65996 8.33333 4.16663 6.84 4.16663 5C4.16663 3.16 5.65996 1.66667 7.49996 1.66667C9.33996 1.66667 10.8333 3.16 10.8333 5C10.8333 6.84 9.33996 8.33333 7.49996 8.33333ZM7.49996 3C6.39329 3 5.49996 3.89333 5.49996 5C5.49996 6.10667 6.39329 7 7.49996 7C8.60663 7 9.49996 6.10667 9.49996 5C9.49996 3.89333 8.60663 3 7.49996 3Z" fill="#1560FB"/>
</svg>
